<svg xmlns="http://www.w3.org/2000/svg" width="160" height="99" viewBox="0 0 160 99">
  <rect width="160" height="99" fill="#0c0e12"/>
  <!-- connectors -->
  <line x1="80" y1="49" x2="80" y2="20" stroke="#2a3040" stroke-width="1"/>
  <line x1="80" y1="49" x2="115" y2="30" stroke="#2a3040" stroke-width="1"/>
  <line x1="80" y1="49" x2="128" y2="62" stroke="#2a3040" stroke-width="1"/>
  <line x1="80" y1="49" x2="105" y2="78" stroke="#2a3040" stroke-width="1"/>
  <line x1="80" y1="49" x2="55" y2="78" stroke="#2a3040" stroke-width="1"/>
  <line x1="80" y1="49" x2="32" y2="62" stroke="#2a3040" stroke-width="1"/>
  <line x1="80" y1="49" x2="45" y2="30" stroke="#2a3040" stroke-width="1"/>
  <line x1="80" y1="20" x2="65" y2="8"  stroke="#1e2530" stroke-width="1"/>
  <line x1="80" y1="20" x2="80" y2="6"  stroke="#1e2530" stroke-width="1"/>
  <line x1="80" y1="20" x2="95" y2="8"  stroke="#1e2530" stroke-width="1"/>
  <line x1="115" y1="30" x2="130" y2="18" stroke="#1e2530" stroke-width="1"/>
  <line x1="115" y1="30" x2="142" y2="22" stroke="#1e2530" stroke-width="1"/>
  <line x1="128" y1="62" x2="144" y2="52" stroke="#1e2530" stroke-width="1"/>
  <line x1="128" y1="62" x2="148" y2="66" stroke="#1e2530" stroke-width="1"/>
  <line x1="105" y1="78" x2="118" y2="88" stroke="#1e2530" stroke-width="1"/>
  <line x1="55" y1="78" x2="42" y2="88" stroke="#1e2530" stroke-width="1"/>
  <line x1="55" y1="78" x2="58" y2="92" stroke="#1e2530" stroke-width="1"/>
  <line x1="32" y1="62" x2="14" y2="56" stroke="#1e2530" stroke-width="1"/>
  <line x1="32" y1="62" x2="18" y2="70" stroke="#1e2530" stroke-width="1"/>
  <line x1="45" y1="30" x2="28" y2="20" stroke="#1e2530" stroke-width="1"/>
  <line x1="45" y1="30" x2="18" y2="28" stroke="#1e2530" stroke-width="1"/>
  <!-- file dots: TS in blue/purple, HTML in orange -->
  <circle cx="63" cy="6"  r="1.5" fill="#3178c6" opacity="0.7"/>
  <circle cx="69" cy="12" r="1.5" fill="#e34c26" opacity="0.7"/>
  <circle cx="78" cy="4"  r="1.5" fill="#3178c6" opacity="0.7"/>
  <circle cx="84" cy="10" r="1.5" fill="#a855f7" opacity="0.7"/>
  <circle cx="93" cy="6"  r="1.5" fill="#3178c6" opacity="0.7"/>
  <circle cx="99" cy="12" r="1.5" fill="#e34c26" opacity="0.7"/>
  <circle cx="128" cy="16" r="1.5" fill="#3178c6" opacity="0.7"/>
  <circle cx="134" cy="22" r="1.5" fill="#a855f7" opacity="0.7"/>
  <circle cx="140" cy="18" r="1.5" fill="#3178c6" opacity="0.7"/>
  <circle cx="146" cy="24" r="1.5" fill="#e34c26" opacity="0.7"/>
  <circle cx="142" cy="50" r="1.5" fill="#3178c6" opacity="0.7"/>
  <circle cx="148" cy="56" r="1.5" fill="#a855f7" opacity="0.7"/>
  <circle cx="146" cy="64" r="1.5" fill="#3178c6" opacity="0.7"/>
  <circle cx="150" cy="70" r="1.5" fill="#e34c26" opacity="0.7"/>
  <circle cx="116" cy="86" r="1.5" fill="#3178c6" opacity="0.7"/>
  <circle cx="122" cy="92" r="1.5" fill="#a855f7" opacity="0.7"/>
  <circle cx="40" cy="86" r="1.5" fill="#3178c6" opacity="0.7"/>
  <circle cx="46" cy="92" r="1.5" fill="#e34c26" opacity="0.7"/>
  <circle cx="56" cy="90" r="1.5" fill="#3178c6" opacity="0.7"/>
  <circle cx="62" cy="96" r="1.5" fill="#a855f7" opacity="0.7"/>
  <circle cx="12" cy="54" r="1.5" fill="#3178c6" opacity="0.7"/>
  <circle cx="18" cy="60" r="1.5" fill="#e34c26" opacity="0.7"/>
  <circle cx="16" cy="68" r="1.5" fill="#3178c6" opacity="0.7"/>
  <circle cx="22" cy="74" r="1.5" fill="#a855f7" opacity="0.7"/>
  <circle cx="26" cy="18" r="1.5" fill="#3178c6" opacity="0.7"/>
  <circle cx="16" cy="26" r="1.5" fill="#e34c26" opacity="0.7"/>
  <circle cx="22" cy="32" r="1.5" fill="#3178c6" opacity="0.7"/>
  <!-- folder nodes: Angular red -->
  <circle cx="80" cy="49" r="5.5" fill="#dd0031" opacity="0.9"/>
  <circle cx="80" cy="20" r="3.5" fill="#dd0031" opacity="0.75"/>
  <circle cx="115" cy="30" r="3.5" fill="#dd0031" opacity="0.75"/>
  <circle cx="128" cy="62" r="3.5" fill="#dd0031" opacity="0.75"/>
  <circle cx="105" cy="78" r="3.5" fill="#dd0031" opacity="0.75"/>
  <circle cx="55" cy="78" r="3.5" fill="#dd0031" opacity="0.75"/>
  <circle cx="32" cy="62" r="3.5" fill="#dd0031" opacity="0.75"/>
  <circle cx="45" cy="30" r="3.5" fill="#dd0031" opacity="0.75"/>
</svg>
