<svg xmlns="http://www.w3.org/2000/svg" width="160" height="99" viewBox="0 0 160 99">
  <rect width="160" height="99" fill="#0c0e12"/>
  <!-- connectors -->
  <line x1="80" y1="49" x2="40" y2="28" stroke="#2a3040" stroke-width="1"/>
  <line x1="80" y1="49" x2="110" y2="22" stroke="#2a3040" stroke-width="1"/>
  <line x1="80" y1="49" x2="125" y2="58" stroke="#2a3040" stroke-width="1"/>
  <line x1="80" y1="49" x2="55" y2="72" stroke="#2a3040" stroke-width="1"/>
  <line x1="80" y1="49" x2="100" y2="75" stroke="#2a3040" stroke-width="1"/>
  <line x1="40" y1="28" x2="22" y2="18" stroke="#1e2530" stroke-width="1"/>
  <line x1="40" y1="28" x2="28" y2="42" stroke="#1e2530" stroke-width="1"/>
  <line x1="40" y1="28" x2="58" y2="18" stroke="#1e2530" stroke-width="1"/>
  <line x1="110" y1="22" x2="95" y2="10" stroke="#1e2530" stroke-width="1"/>
  <line x1="110" y1="22" x2="130" y2="12" stroke="#1e2530" stroke-width="1"/>
  <line x1="125" y1="58" x2="142" y2="45" stroke="#1e2530" stroke-width="1"/>
  <line x1="125" y1="58" x2="138" y2="72" stroke="#1e2530" stroke-width="1"/>
  <line x1="55" y1="72" x2="38" y2="82" stroke="#1e2530" stroke-width="1"/>
  <line x1="55" y1="72" x2="62" y2="88" stroke="#1e2530" stroke-width="1"/>
  <!-- file dots -->
  <circle cx="18" cy="14" r="1.5" fill="#61dafb" opacity="0.7"/>
  <circle cx="24" cy="20" r="1.5" fill="#f7df1e" opacity="0.7"/>
  <circle cx="30" cy="12" r="1.5" fill="#61dafb" opacity="0.7"/>
  <circle cx="26" cy="44" r="1.5" fill="#f7df1e" opacity="0.7"/>
  <circle cx="32" cy="38" r="1.5" fill="#61dafb" opacity="0.7"/>
  <circle cx="56" cy="16" r="1.5" fill="#f7df1e" opacity="0.7"/>
  <circle cx="62" cy="22" r="1.5" fill="#61dafb" opacity="0.7"/>
  <circle cx="93" cy="8"  r="1.5" fill="#61dafb" opacity="0.7"/>
  <circle cx="99" cy="14" r="1.5" fill="#f7df1e" opacity="0.7"/>
  <circle cx="128" cy="10" r="1.5" fill="#61dafb" opacity="0.7"/>
  <circle cx="134" cy="16" r="1.5" fill="#f7df1e" opacity="0.7"/>
  <circle cx="140" cy="43" r="1.5" fill="#61dafb" opacity="0.7"/>
  <circle cx="145" cy="50" r="1.5" fill="#f7df1e" opacity="0.7"/>
  <circle cx="136" cy="70" r="1.5" fill="#61dafb" opacity="0.7"/>
  <circle cx="142" cy="76" r="1.5" fill="#f7df1e" opacity="0.7"/>
  <circle cx="36" cy="80" r="1.5" fill="#61dafb" opacity="0.7"/>
  <circle cx="42" cy="86" r="1.5" fill="#f7df1e" opacity="0.7"/>
  <circle cx="60" cy="86" r="1.5" fill="#61dafb" opacity="0.7"/>
  <circle cx="66" cy="92" r="1.5" fill="#f7df1e" opacity="0.7"/>
  <circle cx="98" cy="73" r="1.5" fill="#61dafb" opacity="0.7"/>
  <circle cx="104" cy="79" r="1.5" fill="#f7df1e" opacity="0.7"/>
  <!-- folder nodes -->
  <circle cx="80" cy="49" r="5" fill="#3b82f6" opacity="0.9"/>
  <circle cx="40" cy="28" r="3.5" fill="#3b82f6" opacity="0.75"/>
  <circle cx="110" cy="22" r="3.5" fill="#3b82f6" opacity="0.75"/>
  <circle cx="125" cy="58" r="3.5" fill="#3b82f6" opacity="0.75"/>
  <circle cx="55" cy="72" r="3.5" fill="#3b82f6" opacity="0.75"/>
  <circle cx="100" cy="75" r="3.5" fill="#3b82f6" opacity="0.75"/>
</svg>
