<svg xmlns="http://www.w3.org/2000/svg" width="160" height="99" viewBox="0 0 160 99">
  <rect width="160" height="99" fill="#0c0e12"/>
  <!-- connectors -->
  <line x1="80" y1="49" x2="30" y2="30" stroke="#2a3040" stroke-width="1"/>
  <line x1="80" y1="49" x2="60" y2="20" stroke="#2a3040" stroke-width="1"/>
  <line x1="80" y1="49" x2="108" y2="18" stroke="#2a3040" stroke-width="1"/>
  <line x1="80" y1="49" x2="135" y2="35" stroke="#2a3040" stroke-width="1"/>
  <line x1="80" y1="49" x2="140" y2="65" stroke="#2a3040" stroke-width="1"/>
  <line x1="80" y1="49" x2="110" y2="80" stroke="#2a3040" stroke-width="1"/>
  <line x1="80" y1="49" x2="45" y2="78" stroke="#2a3040" stroke-width="1"/>
  <line x1="80" y1="49" x2="20" y2="62" stroke="#2a3040" stroke-width="1"/>
  <line x1="30" y1="30" x2="12" y2="20" stroke="#1e2530" stroke-width="1"/>
  <line x1="30" y1="30" x2="18" y2="38" stroke="#1e2530" stroke-width="1"/>
  <line x1="60" y1="20" x2="50" y2="8"  stroke="#1e2530" stroke-width="1"/>
  <line x1="60" y1="20" x2="70" y2="8"  stroke="#1e2530" stroke-width="1"/>
  <line x1="108" y1="18" x2="98" y2="6" stroke="#1e2530" stroke-width="1"/>
  <line x1="108" y1="18" x2="118" y2="6" stroke="#1e2530" stroke-width="1"/>
  <line x1="135" y1="35" x2="148" y2="24" stroke="#1e2530" stroke-width="1"/>
  <line x1="140" y1="65" x2="152" y2="58" stroke="#1e2530" stroke-width="1"/>
  <line x1="140" y1="65" x2="150" y2="74" stroke="#1e2530" stroke-width="1"/>
  <line x1="110" y1="80" x2="118" y2="90" stroke="#1e2530" stroke-width="1"/>
  <line x1="45" y1="78" x2="38" y2="90" stroke="#1e2530" stroke-width="1"/>
  <line x1="20" y1="62" x2="10" y2="54" stroke="#1e2530" stroke-width="1"/>
  <line x1="20" y1="62" x2="8"  y2="70" stroke="#1e2530" stroke-width="1"/>
  <!-- file dots: C files in orange/yellow -->
  <circle cx="10" cy="18" r="1.5" fill="#f97316" opacity="0.7"/>
  <circle cx="14" cy="24" r="1.5" fill="#f59e0b" opacity="0.7"/>
  <circle cx="16" cy="36" r="1.5" fill="#f97316" opacity="0.7"/>
  <circle cx="22" cy="42" r="1.5" fill="#f59e0b" opacity="0.7"/>
  <circle cx="48" cy="6"  r="1.5" fill="#f97316" opacity="0.7"/>
  <circle cx="54" cy="12" r="1.5" fill="#f59e0b" opacity="0.7"/>
  <circle cx="68" cy="6"  r="1.5" fill="#f97316" opacity="0.7"/>
  <circle cx="74" cy="12" r="1.5" fill="#f59e0b" opacity="0.7"/>
  <circle cx="96" cy="4"  r="1.5" fill="#f97316" opacity="0.7"/>
  <circle cx="102" cy="10" r="1.5" fill="#f59e0b" opacity="0.7"/>
  <circle cx="116" cy="4"  r="1.5" fill="#f97316" opacity="0.7"/>
  <circle cx="122" cy="10" r="1.5" fill="#f59e0b" opacity="0.7"/>
  <circle cx="146" cy="22" r="1.5" fill="#f97316" opacity="0.7"/>
  <circle cx="150" cy="56" r="1.5" fill="#f59e0b" opacity="0.7"/>
  <circle cx="154" cy="64" r="1.5" fill="#f97316" opacity="0.7"/>
  <circle cx="150" cy="72" r="1.5" fill="#f59e0b" opacity="0.7"/>
  <circle cx="116" cy="88" r="1.5" fill="#f97316" opacity="0.7"/>
  <circle cx="122" cy="94" r="1.5" fill="#f59e0b" opacity="0.7"/>
  <circle cx="36" cy="88" r="1.5" fill="#f97316" opacity="0.7"/>
  <circle cx="42" cy="94" r="1.5" fill="#f59e0b" opacity="0.7"/>
  <circle cx="8"  cy="52" r="1.5" fill="#f97316" opacity="0.7"/>
  <circle cx="6"  cy="68" r="1.5" fill="#f59e0b" opacity="0.7"/>
  <!-- folder nodes -->
  <circle cx="80" cy="49" r="6" fill="#ef4444" opacity="0.9"/>
  <circle cx="30" cy="30" r="3.5" fill="#ef4444" opacity="0.75"/>
  <circle cx="60" cy="20" r="3.5" fill="#ef4444" opacity="0.75"/>
  <circle cx="108" cy="18" r="3.5" fill="#ef4444" opacity="0.75"/>
  <circle cx="135" cy="35" r="3.5" fill="#ef4444" opacity="0.75"/>
  <circle cx="140" cy="65" r="3.5" fill="#ef4444" opacity="0.75"/>
  <circle cx="110" cy="80" r="3.5" fill="#ef4444" opacity="0.75"/>
  <circle cx="45" cy="78" r="3.5" fill="#ef4444" opacity="0.75"/>
  <circle cx="20" cy="62" r="3.5" fill="#ef4444" opacity="0.75"/>
</svg>
