<?xml version="1.0" encoding="UTF-8" standalone="no"?>
<svg
   version="1.1"
   id="Layer_1"
   x="0px"
   y="0px"
   width="100%"
   viewBox="0 0 1254 1254"
   enable-background="new 0 0 1254 1254"
   xml:space="preserve"
   sodipodi:docname="file (1).svg"
   inkscape:version="1.4.3 (0d15f75, 2025-12-25)"
   xmlns:inkscape="http://www.inkscape.org/namespaces/inkscape"
   xmlns:sodipodi="http://sodipodi.sourceforge.net/DTD/sodipodi-0.dtd"
   xmlns="http://www.w3.org/2000/svg"
   xmlns:svg="http://www.w3.org/2000/svg"><defs
   id="defs5" /><sodipodi:namedview
   id="namedview5"
   pagecolor="#ffffff"
   bordercolor="#000000"
   borderopacity="0.25"
   inkscape:showpageshadow="2"
   inkscape:pageopacity="0.0"
   inkscape:pagecheckerboard="0"
   inkscape:deskcolor="#d1d1d1"
   inkscape:zoom="0.59215484"
   inkscape:cx="632.43594"
   inkscape:cy="624.83657"
   inkscape:window-width="1470"
   inkscape:window-height="895"
   inkscape:window-x="0"
   inkscape:window-y="33"
   inkscape:window-maximized="1"
   inkscape:current-layer="Layer_1" />

<path
   fill="#fe604a"
   opacity="1"
   stroke="none"
   d="m 602.27032,791.03967 c -5.03051,-53.45447 -31.09021,-96.39477 -67.98205,-133.4317 -18.55933,-18.63232 -38.41727,-35.99518 -58.0383,-53.54028 -30.71372,-27.46417 -56.65298,-58.66834 -76.22391,-95.02701 -1.18378,-2.19916 -2.48834,-4.33786 -3.5831,-6.57971 -7.67575,-15.71842 -20.29388,-24.06214 -37.41549,-27.55503 -38.89344,-7.93435 -75.49042,-21.8106 -107.67521,-45.67407 -22.06259,-16.35827 -40.65304,-35.98532 -53.86822,-60.26709 -9.90558,-18.20071 -0.7928,-38.78064 19.0096,-43.54797 12.44931,-2.99713 24.78135,2.1539 32.23585,13.80243 17.76871,27.76565 41.99988,47.97186 71.87842,61.50723 15.33862,6.94858 31.25363,12.25092 48.50677,15.6673 -0.4418,-5.2175 -0.85269,-9.95908 -1.24353,-14.7023 -2.73092,-33.1438 0.71509,-65.89301 6.63059,-98.43631 2.4682,-13.57828 5.41843,-27.08524 8.64969,-40.50421 3.86703,-16.05932 19.86661,-25.85643 35.58703,-22.29949 16.00446,3.6212 25.36005,18.07292 22.42222,34.69985 -1.53458,8.68521 -3.26401,17.33758 -4.68979,26.04013 -4.63273,28.27703 -8.91697,56.56119 -7.86112,85.40011 1.81992,49.70801 18.97287,93.52387 49.72275,132.32532 18.43173,23.25793 40.57703,42.74262 62.77472,62.17426 32.99158,28.88043 63.26764,60.16168 86.79773,97.45678 2.83136,4.48786 5.54956,9.047 8.46594,13.81116 5.53278,-9.78418 10.65772,-19.30334 16.21814,-28.56103 6.51636,-10.84931 13.14569,-21.64954 20.19672,-32.15522 15.78149,-23.51355 18.45819,-49.06158 12.72564,-76.12097 -6.07226,-28.66327 -20.08496,-53.54669 -37.33288,-76.64795 -15.54145,-20.81567 -32.39911,-40.64654 -48.01557,-61.40869 -29.9071,-39.76175 -50.13031,-83.94623 -58.70825,-133.16486 -6.06518,-34.80067 -6.12872,-69.62017 0.26038,-104.39689 2.95862,-16.10469 17.40411,-26.65973 33.05456,-24.30724 16.84656,2.53227 27.26923,16.00083 25.3739,33.00803 -3.41619,30.65483 -3.61767,61.16594 3.71759,91.3761 0.38965,1.60482 0.85914,3.19027 1.72113,6.36966 11.50086,-9.54764 22.77961,-18.05857 33.07898,-27.624 28.75544,-26.70619 46.54304,-59.58627 53.61109,-98.24055 2.66925,-14.59743 14.17242,-25.04343 27.98346,-25.6328 15.03589,-0.64165 27.0451,7.6462 30.86297,21.71072 2.53815,9.35027 0.16004,18.58121 -1.87127,27.65783 -8.70252,38.88592 -27.78498,72.17228 -54.88977,101.11906 -16.02167,17.11051 -33.87464,32.03751 -53.07733,45.41214 -2.04749,1.42606 -4.09589,2.89722 -5.91919,4.58948 -4.50135,4.17792 -7.07831,9.48312 -4.40522,15.268 4.02247,8.70511 8.03424,17.69403 13.74921,25.28315 14.12421,18.7561 29.24481,36.76043 43.9071,55.11312 22.5506,28.22657 40.93866,58.77128 51.49915,93.58356 2.26837,7.47778 3.97693,15.12543 6.02936,23.02551 0.6167,-0.3543 1.20727,-0.54296 1.5896,-0.93481 21.29767,-21.82062 42.66925,-43.57028 63.80652,-65.54538 6.69647,-6.96198 6.58068,-9.17581 1.64202,-17.60181 -23.46209,-40.0289 -40.25549,-82.52282 -47.59497,-128.52725 -2.62487,-16.45346 7.13276,-30.54074 23.26929,-33.41211 16.00494,-2.84799 31.13049,7.52747 33.99896,23.56455 5.3805,30.08221 15.31385,58.56363 29.79761,85.44973 2.58185,4.79267 5.65216,9.32221 8.96137,14.73261 2.87359,-3.21369 5.19329,-5.74335 7.44311,-8.33377 34.11359,-39.27732 52.05951,-85.53513 58.86823,-136.57572 0.8587,-6.4371 1.51483,-12.90725 2.05499,-19.3796 1.3916,-16.67312 15.13977,-28.92983 31.3277,-27.80201 16.45373,1.14634 28.81262,14.69794 27.4494,31.45093 -4.64258,57.05606 -19.94831,110.6366 -52.61438,158.46695 -18.38519,26.91986 -39.4281,51.67536 -61.5697,75.46863 -31.78315,34.15411 -64.21332,67.70514 -96.17304,101.69629 -25.26117,26.86676 -49.13849,54.86413 -68.42328,86.48712 -20.49731,33.61133 -32.62951,70.14246 -38.99005,108.86206 -6.63501,40.39075 -4.92187,81.06433 -5.06213,121.6897 -9.8e-4,0.29022 0.20068,0.58111 0.45825,1.27997 0.70508,-0.50367 1.38861,-0.85987 1.90637,-1.3808 19.8086,-19.93183 41.87091,-37.09967 64.80103,-53.24835 17.71039,-12.47266 33.38391,-27.03809 45.00885,-45.58356 14.22967,-22.70105 21.69201,-47.7345 25.88891,-73.95209 4.85627,-30.33588 4.57923,-60.71332 1.39557,-91.17615 -0.56476,-5.40399 -0.84625,-11.12896 0.30133,-16.36377 2.98456,-13.61492 15.43823,-22.41235 29.58863,-21.85125 13.41571,0.53186 25.77874,10.88647 27.67895,24.59448 3.25073,23.45099 4.82733,47.02966 3.62415,70.768 -1.28626,25.37708 -5.19385,50.30872 -11.3003,74.93519 -0.22509,0.90789 -0.20135,1.87756 -0.42804,4.18902 8.87799,-7.52423 17.06922,-14.05102 24.79834,-21.08563 44.35187,-40.36652 69.95136,-90.88837 80.27216,-149.52033 7.58209,-43.07409 8.44147,-86.49005 5.84216,-130.03012 -1.05584,-17.68753 9.62787,-31.10156 26.02924,-32.19024 17.58574,-1.16727 30.99214,10.7146 31.92674,28.3768 1.7269,32.64166 2.0957,65.27862 -0.4863,97.90051 -0.088,1.10687 -0.011,2.22675 -0.011,4.00043 36.9097,-18.19263 70.1049,-39.13507 82.5422,-81.48011 3.9981,-13.61227 16.2584,-21.86639 29.3971,-21.07772 13.5976,0.81619 25.0361,10.08129 27.1329,23.11245 0.8147,5.06348 0.2644,10.72071 -1.1177,15.70423 -10.8403,39.08618 -34.8385,68.63507 -68.2729,90.52234 -15.9844,10.46399 -33.0401,19.34405 -49.8966,28.40985 -19.3043,10.3822 -32.9319,24.99774 -40.4878,46.03021 -16.53044,46.01324 -42.00138,86.61554 -77.9492,119.99799 -14.98071,13.91168 -31.47302,26.19683 -47.30078,39.19384 -2.40997,1.97901 -4.94391,3.80713 -7.97394,6.12915 15.24732,6.24286 30.19104,10.65204 45.59095,13.49408 30.55908,5.63959 60.90838,5.28406 91.12887,-2.67389 16.3502,-4.30554 31.62,4.47181 35.7383,19.75293 4.2824,15.88983 -4.8841,31.88623 -21.1304,36.63318 -35.89809,10.48902 -72.38649,11.41345 -108.85518,4.5882 -21.71723,-4.06445 -42.90271,-10.89423 -64.48145,-15.80268 -12.77185,-2.90496 -25.77325,-5.23803 -38.79986,-6.47216 -15.37366,-1.45655 -29.78235,3.05139 -42.83167,11.15881 -32.74011,20.34125 -60.67261,45.6969 -80.15735,79.38031 -13.98425,24.17464 -20.13629,50.60104 -20.58246,78.37784 -0.20062,12.4938 0.22278,24.9967 0.30085,37.496 0.0537,8.6079 -3.4469,12.1387 -12.08686,12.1685 -14.16638,0.049 -28.33306,0.05 -42.49951,0.012 -8.41589,-0.022 -12.1051,-3.6903 -12.19629,-12.2902 -0.12896,-12.1648 -0.0588,-24.3317 -0.14642,-36.4972 -0.29224,-40.5551 -13.22186,-76.73624 -37.57929,-109.02976 -20.27001,-26.87426 -44.49591,-49.38647 -72.46667,-68.15039 -18.28961,-12.26929 -36.85489,-13.93371 -56.80856,-5.15759 -16.76752,7.37469 -33.43995,15.0459 -50.54902,21.54767 -40.93679,15.5567 -83.14627,19.26514 -126.33035,11.88916 -15.97854,-2.72925 -26.76079,-17.56024 -24.30139,-33.59808 2.46027,-16.04346 16.66638,-27.2201 32.64484,-24.5564 31.00656,5.16888 61.49817,3.9693 91.10086,-6.89856 14.45276,-5.30597 28.3294,-12.18115 42.46682,-18.34607 -0.06,-0.62195 -0.1199,-1.24396 -0.17987,-1.86591 -1.57864,-1.03051 -3.11544,-2.13281 -4.74206,-3.08099 -39.30844,-22.91596 -73.43521,-51.85968 -101.38526,-87.83246 -12.28872,-15.81604 -28.43624,-24.61359 -47.6661,-28.84088 -22.79138,-5.01019 -45.40451,-10.67523 -66.59925,-20.86585 -26.13665,-12.56665 -48.45181,-29.83044 -65.69267,-53.31127 -10.817197,-14.73218 -8.75501,-31.89869 4.85298,-42.0243 13.26664,-9.87164 31.50014,-7.08026 42.12024,6.86383 21.98098,28.86091 52.59908,42.39191 87.38535,49.70142 0.58703,-0.14093 0.67869,-0.40546 0.77035,-0.66998 -3.5858,-15.20514 -7.70343,-30.30878 -10.63079,-45.63965 -4.23067,-22.15625 -5.58043,-44.57916 -3.60228,-67.12817 1.35841,-15.48438 14.43577,-26.72632 30.49012,-26.15265 15.31357,0.54724 27.81528,13.24218 27.52594,28.63836 -0.68362,36.37653 4.3628,71.76703 17.89643,105.67316 20.37249,51.03967 54.91275,90.40356 100.35345,120.62067 5.11627,3.40228 10.52756,6.36078 16.17587,9.65838 0.55439,0.0355 0.73496,-0.0623 0.91553,-0.16003 -0.13428,-0.0746 -0.26858,-0.14917 -0.40289,-0.22376 -1.45282,-9.36187 -2.97998,-18.71289 -4.34372,-28.0877 -3.31912,-22.81665 -4.83633,-45.69599 -2.56549,-68.73822 1.63727,-16.61341 14.97326,-28.27753 31.67343,-27.40162 15.73779,0.82544 27.89065,13.58576 27.43527,29.82587 -1.00378,35.79736 4.3454,70.69477 13.62729,105.13831 5.41693,20.10138 15.49942,36.82428 32.36676,49.63318 28.17157,21.39312 54.77063,44.62194 78.62183,70.85516 0.29162,0.3208 0.82885,0.41821 1.84637,0.75745 0.82727,-0.38648 1.2627,-0.91022 1.26312,-1.43433 -0.91631,-41.59093 0.72633,-90.22776 -1.69867,-123.46973 z"
   id="path2"
   sodipodi:nodetypes="csssssssssscsssssssssscsssssssssscssssssssssssccscssssccssssssssssccssssssssscsssssscssscssssscssssssssssssssssssssssscccssssssccsssssscccssssssscccc" />



</svg>
